<svg xmlns="http://www.w3.org/2000/svg" xmlns:xlink="http://www.w3.org/1999/xlink" id="Capa_1" x="0px" y="0px" width="110px" height="110px" viewBox="0 0 110 110" xml:space="preserve"><g>	<g>		<path fill="#004694" d="M179.541-563.948h-35.637c-0.734,0-1.33-0.596-1.33-1.331v-97c0-0.734,0.596-1.332,1.33-1.332    c0.736,0,1.332,0.597,1.332,1.332v95.669h32.975v-128.647h-32.975v25.341c0,0.736-0.596,1.331-1.332,1.331    c-0.734,0-1.33-0.595-1.33-1.331v-26.672c0-0.734,0.596-1.33,1.33-1.33h35.637c0.734,0,1.332,0.596,1.332,1.33v131.31    C180.873-564.544,180.275-563.948,179.541-563.948z"></path>	</g>	<g>		<path fill="#004694" d="M215.178-563.948h-35.637c-0.734,0-1.33-0.596-1.33-1.331v-131.31c0-0.734,0.596-1.33,1.33-1.33h35.637    c0.734,0,1.332,0.596,1.332,1.33v131.31C216.51-564.544,215.912-563.948,215.178-563.948z M180.873-566.61h32.975v-128.647    h-32.975V-566.61L180.873-566.61z"></path>	</g>	<g>		<path fill="#004694" d="M204.162-637.292h-8.873c-0.734,0-1.33-0.596-1.33-1.331v-13.751c0-0.735,0.596-1.331,1.33-1.331h8.873    c0.734,0,1.33,0.596,1.33,1.331v13.751C205.492-637.888,204.896-637.292,204.162-637.292z M196.621-639.953h6.211v-11.091h-6.211    V-639.953z"></path>	</g>	<g>		<path fill="#004694" d="M204.162-647.864h-8.873c-0.734,0-1.33-0.596-1.33-1.331v-3.179c0-0.735,0.596-1.331,1.33-1.331h8.873    c0.734,0,1.33,0.596,1.33,1.331v3.179C205.492-648.46,204.896-647.864,204.162-647.864z M196.621-650.525h6.211v-0.519h-6.211    V-650.525z"></path>	</g>	<g>		<path fill="#004694" d="M146.43-563.948H128.23c-0.734,0-1.332-0.596-1.332-1.331c0-0.733,0.598-1.331,1.332-1.331h18.199    c0.734,0,1.332,0.597,1.332,1.331C147.762-564.544,147.165-563.948,146.43-563.948z"></path>	</g>	<g>		<path fill="#004694" d="M237.211-563.948h-26.174c-0.732,0-1.33-0.596-1.33-1.331c0-0.733,0.598-1.331,1.33-1.331h26.174    c0.734,0,1.332,0.597,1.332,1.331C238.543-564.544,237.945-563.948,237.211-563.948z"></path>	</g></g><g>	<g>		<path fill="#C02A26" d="M-210.593-563.948h-15.822c-0.735,0-1.331-0.596-1.331-1.331c0-0.733,0.595-1.331,1.331-1.331h14.491    v-83.843c0-0.734,0.596-1.331,1.331-1.331h37.929c0.735,0,1.331,0.597,1.331,1.331c0,0.735-0.596,1.331-1.331,1.331h-36.598    v83.843C-209.262-564.544-209.857-563.948-210.593-563.948z"></path>	</g>	<g>		<path fill="#C02A26" d="M-125.42-569.386c-0.734,0-1.33-0.596-1.33-1.331v-78.405h-39.777c-0.736,0-1.331-0.596-1.331-1.331    c0-0.734,0.595-1.331,1.331-1.331h41.107c0.736,0,1.332,0.597,1.332,1.331v79.736    C-124.088-569.981-124.684-569.386-125.42-569.386z"></path>	</g>	<g>		<path fill="#C02A26" d="M-111.659-563.948h-92.945c-0.735,0-1.33-0.596-1.33-1.331c0-0.733,0.595-1.331,1.33-1.331h92.945    c0.736,0,1.331,0.597,1.331,1.331C-110.328-564.544-110.923-563.948-111.659-563.948z"></path>	</g>	<g>		<path fill="#C02A26" d="M-131.333-573.116h-73.271c-0.735,0-1.33-0.595-1.33-1.33v-51.459c0-0.735,0.595-1.33,1.33-1.33h73.271    c0.735,0,1.331,0.595,1.331,1.33v51.459C-130.002-573.711-130.599-573.116-131.333-573.116z M-203.274-575.777h70.61v-48.797    h-70.61V-575.777z"></path>	</g>	<g>		<path fill="#C02A26" d="M-197.285-631.821c-2.812,0-5.101-2.288-5.101-5.102c0-2.813,2.29-5.102,5.101-5.102    c2.814,0,5.102,2.289,5.102,5.102C-192.183-634.109-194.471-631.821-197.285-631.821z M-197.285-639.362    c-1.345,0-2.438,1.095-2.438,2.439c0,1.348,1.094,2.44,2.438,2.44c1.346,0,2.44-1.093,2.44-2.44    C-194.845-638.268-195.939-639.362-197.285-639.362z"></path>	</g>	<g>		<path fill="#C02A26" d="M-168.19-631.821c-2.813,0-5.101-2.288-5.101-5.102c0-2.813,2.287-5.102,5.101-5.102    c2.813,0,5.102,2.289,5.102,5.102C-163.089-634.109-165.377-631.821-168.19-631.821z M-168.19-639.362    c-1.346,0-2.44,1.095-2.44,2.439c0,1.348,1.095,2.44,2.44,2.44c1.346,0,2.44-1.093,2.44-2.44    C-165.75-638.268-166.844-639.362-168.19-639.362z"></path>	</g>	<g>		<path fill="#C02A26" d="M-140.059-631.821c-2.813,0-5.102-2.288-5.102-5.102c0-2.813,2.29-5.102,5.102-5.102    c2.813,0,5.103,2.289,5.103,5.102C-134.956-634.109-137.246-631.821-140.059-631.821z M-140.059-639.362    c-1.345,0-2.439,1.095-2.439,2.439c0,1.348,1.095,2.44,2.439,2.44c1.346,0,2.44-1.093,2.44-2.44    C-137.619-638.268-138.713-639.362-140.059-639.362z"></path>	</g></g><g>	<g>		<path fill="#E6B735" d="M-248.942-563.948c-0.734,0-1.331-0.596-1.331-1.331v-83.843h-61.957c-0.735,0-1.331-0.596-1.331-1.331    c0-0.734,0.596-1.331,1.331-1.331h63.287c0.736,0,1.331,0.597,1.331,1.331v85.174    C-247.611-564.544-248.207-563.948-248.942-563.948z"></path>	</g>	<g>		<path fill="#E6B735" d="M-334.115-563.948h-12.245c-0.735,0-1.331-0.596-1.331-1.331c0-0.733,0.596-1.331,1.331-1.331h10.914    v-83.843c0-0.734,0.596-1.331,1.332-1.331h14.732c0.736,0,1.331,0.597,1.331,1.331c0,0.735-0.595,1.331-1.331,1.331h-13.402    v83.843C-332.785-564.544-333.38-563.948-334.115-563.948z"></path>	</g>	<g>		<path fill="#E6B735" d="M-274.079-563.948h-50.794c-0.734,0-1.33-0.596-1.33-1.331c0-0.733,0.596-1.331,1.33-1.331h50.794    c0.734,0,1.33,0.597,1.33,1.331C-272.749-564.544-273.345-563.948-274.079-563.948z"></path>	</g>	<g>		<path fill="#E6B735" d="M-233.969-563.948h-34.343c-0.735,0-1.331-0.596-1.331-1.331c0-0.733,0.596-1.331,1.331-1.331h34.343    c0.735,0,1.332,0.597,1.332,1.331C-232.638-564.544-233.234-563.948-233.969-563.948z"></path>	</g>	<g>		<path fill="#E6B735" d="M-311.486-610.231c-9.01,0-16.34-7.33-16.34-16.339c0-9.012,7.33-16.341,16.34-16.341    c9.011,0,16.34,7.329,16.34,16.341C-295.146-617.562-302.475-610.231-311.486-610.231z M-311.486-640.249    c-7.542,0-13.677,6.135-13.677,13.679c0,7.541,6.136,13.677,13.677,13.677c7.543,0,13.679-6.136,13.679-13.677    C-297.808-634.114-303.943-640.249-311.486-640.249z"></path>	</g>	<g>		<path fill="#E6B735" d="M-272.725-610.231c-9.01,0-16.34-7.33-16.34-16.339c0-9.012,7.33-16.341,16.34-16.341    c9.01,0,16.34,7.329,16.34,16.341C-256.385-617.562-263.715-610.231-272.725-610.231z M-272.725-640.249    c-7.542,0-13.678,6.135-13.678,13.679c0,7.541,6.136,13.677,13.678,13.677c7.543,0,13.679-6.136,13.679-13.677    C-259.046-634.114-265.182-640.249-272.725-640.249z"></path>	</g>	<g>		<path fill="#E6B735" d="M-311.486-574.004c-9.01,0-16.34-7.329-16.34-16.34c0-9.009,7.33-16.338,16.34-16.338    c9.011,0,16.34,7.329,16.34,16.338C-295.146-581.333-302.475-574.004-311.486-574.004z M-311.486-604.021    c-7.542,0-13.677,6.136-13.677,13.677c0,7.543,6.136,13.679,13.677,13.679c7.543,0,13.679-6.136,13.679-13.679    C-297.808-597.885-303.943-604.021-311.486-604.021z"></path>	</g>	<g>		<path fill="#E6B735" d="M-272.725-574.004c-9.01,0-16.34-7.329-16.34-16.34c0-9.009,7.33-16.338,16.34-16.338    c9.01,0,16.34,7.329,16.34,16.338C-256.385-581.333-263.715-574.004-272.725-574.004z M-272.725-604.021    c-7.542,0-13.678,6.136-13.678,13.677c0,7.543,6.136,13.679,13.678,13.679c7.543,0,13.679-6.136,13.679-13.679    C-259.046-597.885-265.182-604.021-272.725-604.021z"></path>	</g></g><g>	<g>		<path fill="#6A181B" d="M92.951-571.257c-0.846,0-1.68-0.331-2.412-0.959c-1.559-1.333-2.723-4.061-3.193-7.486    c-0.053-0.381,0.063-0.765,0.314-1.056c0.253-0.29,0.619-0.456,1.004-0.456h8.574c0.385,0,0.75,0.166,1.004,0.456    c0.253,0.291,0.367,0.675,0.314,1.057c-0.474,3.425-1.638,6.153-3.193,7.485C94.631-571.588,93.796-571.257,92.951-571.257z     M90.252-578.552c0.514,2.323,1.34,3.732,2.016,4.312c0.498,0.428,0.869,0.427,1.365,0.001c0.678-0.578,1.504-1.989,2.018-4.313    H90.252z"></path>	</g>	<g>		<path fill="#6A181B" d="M85.052-563.948H44.24c-0.735,0-1.331-0.596-1.331-1.331v-73.344c0-0.733,0.596-1.33,1.331-1.33h40.812    c0.735,0,1.331,0.597,1.331,1.33v18.632c0,0.735-0.596,1.33-1.331,1.33s-1.329-0.595-1.329-1.33v-17.301H45.57v70.682h38.153    v-49.758c0-0.733,0.594-1.33,1.329-1.33s1.331,0.597,1.331,1.33v51.089C86.383-564.544,85.787-563.948,85.052-563.948z"></path>	</g>	<g>		<path fill="#6A181B" d="M80.615-568.531H49.119c-0.734,0-1.331-0.597-1.331-1.331v-60.848c0-0.735,0.596-1.331,1.331-1.331h31.496    c0.734,0,1.33,0.596,1.33,1.331v60.848C81.945-569.128,81.35-568.531,80.615-568.531z M50.45-571.194h28.835v-58.186H50.45    V-571.194z"></path>	</g>	<g>		<path fill="#6A181B" d="M80.615-594.925H49.119c-0.734,0-1.331-0.596-1.331-1.331v-8.062c0-0.734,0.596-1.331,1.331-1.331h31.496    c0.734,0,1.33,0.597,1.33,1.331v8.062C81.945-595.521,81.35-594.925,80.615-594.925z M50.45-597.587h28.835v-5.399H50.45V-597.587    z"></path>	</g>	<g>		<path fill="#6A181B" d="M32.521-563.948H10.858c-0.735,0-1.331-0.596-1.331-1.331c0-0.733,0.596-1.331,1.331-1.331H32.52    c0.735,0,1.332,0.597,1.332,1.331C33.852-564.544,33.256-563.948,32.521-563.948z"></path>	</g>	<g>		<path fill="#6A181B" d="M44.24-563.948h-7.985c-0.734,0-1.331-0.596-1.331-1.331c0-0.733,0.596-1.331,1.331-1.331h7.985    c0.734,0,1.33,0.597,1.33,1.331C45.57-564.544,44.974-563.948,44.24-563.948z"></path>	</g>	<g>		<path fill="#6A181B" d="M99.543-563.948H85.052c-0.735,0-1.329-0.596-1.329-1.331c0-0.733,0.594-1.331,1.329-1.331h14.491    c0.734,0,1.33,0.597,1.33,1.331C100.873-564.544,100.277-563.948,99.543-563.948z"></path>	</g>	<g>		<path fill="#6A181B" d="M122.477-563.948h-18.201c-0.733,0-1.33-0.596-1.33-1.331c0-0.733,0.597-1.331,1.33-1.331h18.201    c0.732,0,1.33,0.597,1.33,1.331C123.807-564.544,123.209-563.948,122.477-563.948z"></path>	</g>	<g>		<path fill="#6A181B" d="M92.951-564.613c-0.735,0-1.331-0.597-1.331-1.331v-6.645c0-0.734,0.596-1.33,1.331-1.33    c0.734,0,1.331,0.596,1.331,1.33v6.645C94.282-565.21,93.686-564.613,92.951-564.613z"></path>	</g></g><g>	<g>		<path fill="#CA611F" d="M-10.143-563.948H-37.5c-0.734,0-1.33-0.596-1.33-1.331c0-0.733,0.596-1.331,1.33-1.331h26.026v-42.29    h-27.8c-0.736,0-1.331-0.597-1.331-1.331s0.595-1.331,1.331-1.331h29.131c0.734,0,1.33,0.597,1.33,1.331v44.952    C-8.813-564.544-9.409-563.948-10.143-563.948z"></path>	</g>	<g>		<path fill="#CA611F" d="M-95.889-563.948h-10.389c-0.736,0-1.332-0.596-1.332-1.331c0-0.733,0.595-1.331,1.332-1.331h9.059    v-43.621c0-0.734,0.596-1.331,1.33-1.331h52.067c0.735,0,1.332,0.597,1.332,1.331s-0.596,1.331-1.332,1.331h-50.736v43.621    C-94.558-564.544-95.153-563.948-95.889-563.948z"></path>	</g>	<g>		<path fill="#CA611F" d="M-41.714-563.948h-48.649c-0.736,0-1.332-0.596-1.332-1.331c0-0.733,0.595-1.331,1.332-1.331h48.649    c0.734,0,1.33,0.597,1.33,1.331C-40.384-564.544-40.98-563.948-41.714-563.948z"></path>	</g>	<g>		<path fill="#CA611F" d="M4.662-563.948h-14.805c-0.735,0-1.331-0.596-1.331-1.331c0-0.733,0.596-1.331,1.331-1.331H4.662    c0.735,0,1.331,0.597,1.331,1.331C5.993-564.544,5.396-563.948,4.662-563.948z"></path>	</g>	<g>		<path fill="#CA611F" d="M-24.34-568.531h-67.757c-0.735,0-1.33-0.597-1.33-1.331v-34.635c0-0.735,0.595-1.331,1.33-1.331h67.757    c0.735,0,1.331,0.596,1.331,1.331v34.635C-23.009-569.128-23.605-568.531-24.34-568.531z M-90.765-571.194h65.095v-31.972h-65.095    V-571.194z"></path>	</g>	<g>		<path fill="#CA611F" d="M-17.655-582.078c-2.814,0-5.102-2.288-5.102-5.102c0-2.814,2.288-5.103,5.102-5.103    c2.813,0,5.101,2.288,5.101,5.103C-12.554-584.366-14.842-582.078-17.655-582.078z M-17.655-589.62c-1.346,0-2.44,1.095-2.44,2.44    c0,1.345,1.095,2.438,2.44,2.438c1.345,0,2.439-1.095,2.439-2.438C-15.215-588.525-16.31-589.62-17.655-589.62z"></path>	</g>	<g>		<path fill="#CA611F" d="M-13.212-568.531h-7.807c-0.734,0-1.33-0.597-1.33-1.331v-3.78c0-0.735,0.596-1.331,1.33-1.331h7.807    c0.735,0,1.331,0.596,1.331,1.331v3.78C-11.881-569.128-12.477-568.531-13.212-568.531z M-19.688-571.194h5.145v-1.117h-5.145    V-571.194z"></path>	</g></g><g>	<g>		<path d="M94.728,110c-0.689,0-1.249-0.559-1.249-1.249V30.047H35.32c-0.69,0-1.25-0.559-1.25-1.25c0-0.689,0.559-1.249,1.25-1.249    h59.407c0.69,0,1.25,0.56,1.25,1.249v79.953C95.978,109.441,95.418,110,94.728,110z"></path>	</g>	<g>		<path d="M14.776,110H3.282c-0.69,0-1.25-0.559-1.25-1.249c0-0.689,0.559-1.25,1.25-1.25h10.244V28.798    c0-0.689,0.56-1.249,1.25-1.249h13.828c0.691,0,1.25,0.56,1.25,1.249c0,0.69-0.558,1.25-1.25,1.25h-12.58v78.704    C16.025,109.441,15.465,110,14.776,110z"></path>	</g>	<g>		<path d="M71.132,110H23.451c-0.688,0-1.249-0.559-1.249-1.249c0-0.689,0.561-1.25,1.249-1.25h47.681    c0.689,0,1.249,0.561,1.249,1.25C72.381,109.441,71.821,110,71.132,110z"></path>	</g>	<g>		<path d="M108.783,110H76.545c-0.69,0-1.249-0.559-1.249-1.249c0-0.689,0.559-1.25,1.249-1.25h32.238    c0.689,0,1.249,0.561,1.249,1.25C110.032,109.441,109.473,110,108.783,110z"></path>	</g>	<g>		<path d="M36.018,66.555c-8.458,0-15.338-6.881-15.338-15.338c0-8.459,6.881-15.339,15.338-15.339    c8.458,0,15.338,6.88,15.338,15.339C51.356,59.674,44.477,66.555,36.018,66.555z M36.018,38.376    c-7.08,0-12.839,5.759-12.839,12.84c0,7.079,5.76,12.838,12.839,12.838c7.081,0,12.84-5.759,12.84-12.838    C48.858,44.135,43.099,38.376,36.018,38.376z"></path>	</g>	<g>		<path d="M72.402,66.555c-8.457,0-15.338-6.881-15.338-15.338c0-8.459,6.881-15.339,15.338-15.339c8.459,0,15.34,6.88,15.34,15.339    C87.742,59.674,80.861,66.555,72.402,66.555z M72.402,38.376c-7.079,0-12.839,5.759-12.839,12.84    c0,7.079,5.76,12.838,12.839,12.838c7.081,0,12.841-5.759,12.841-12.838C85.243,44.135,79.483,38.376,72.402,38.376z"></path>	</g>	<g>		<path d="M36.018,100.561c-8.458,0-15.338-6.88-15.338-15.338c0-8.456,6.881-15.336,15.338-15.336    c8.458,0,15.338,6.88,15.338,15.336C51.356,93.681,44.477,100.561,36.018,100.561z M36.018,72.385    c-7.08,0-12.839,5.759-12.839,12.838c0,7.081,5.76,12.84,12.839,12.84c7.081,0,12.84-5.759,12.84-12.84    C48.858,78.144,43.099,72.385,36.018,72.385z"></path>	</g>	<g>		<path d="M72.402,100.561c-8.457,0-15.338-6.88-15.338-15.338c0-8.456,6.881-15.336,15.338-15.336c8.459,0,15.34,6.88,15.34,15.336    C87.742,93.681,80.861,100.561,72.402,100.561z M72.402,72.385c-7.079,0-12.839,5.759-12.839,12.838    c0,7.081,5.76,12.84,12.839,12.84c7.081,0,12.841-5.759,12.841-12.84C85.243,78.144,79.483,72.385,72.402,72.385z"></path>	</g></g></svg>